<svg xmlns="http://www.w3.org/2000/svg" width="960" height="620" viewBox="0 0 960 620">
<rect width="100%" height="100%" fill="#ffffff"/>
<text x="480.0" y="34" text-anchor="middle" font-family="Arial" font-size="22" font-weight="700">EVAL-3: precision within coarse duration bins</text>
<line x1="95" y1="520.00" x2="920" y2="520.00" stroke="#e2e8f0"/>
<text x="83" y="525.00" text-anchor="end" font-family="Arial" font-size="13">0.00</text>
<line x1="95" y1="430.00" x2="920" y2="430.00" stroke="#e2e8f0"/>
<text x="83" y="435.00" text-anchor="end" font-family="Arial" font-size="13">0.20</text>
<line x1="95" y1="340.00" x2="920" y2="340.00" stroke="#e2e8f0"/>
<text x="83" y="345.00" text-anchor="end" font-family="Arial" font-size="13">0.40</text>
<line x1="95" y1="250.00" x2="920" y2="250.00" stroke="#e2e8f0"/>
<text x="83" y="255.00" text-anchor="end" font-family="Arial" font-size="13">0.60</text>
<line x1="95" y1="160.00" x2="920" y2="160.00" stroke="#e2e8f0"/>
<text x="83" y="165.00" text-anchor="end" font-family="Arial" font-size="13">0.80</text>
<line x1="95" y1="70.00" x2="920" y2="70.00" stroke="#e2e8f0"/>
<text x="83" y="75.00" text-anchor="end" font-family="Arial" font-size="13">1.00</text>
<rect x="123.88" y="291.64" width="46.50" height="228.36" fill="#2563eb"/>
<rect x="173.38" y="348.40" width="46.50" height="171.60" fill="#dc2626"/>
<rect x="222.88" y="350.06" width="46.50" height="169.94" fill="#64748b"/>
<text x="198.12" y="548" text-anchor="middle" font-family="Arial" font-size="14">B0 n=17067</text>
<rect x="330.12" y="303.85" width="46.50" height="216.15" fill="#2563eb"/>
<rect x="379.62" y="332.13" width="46.50" height="187.87" fill="#dc2626"/>
<rect x="429.12" y="332.51" width="46.50" height="187.49" fill="#64748b"/>
<text x="404.38" y="548" text-anchor="middle" font-family="Arial" font-size="14">B1 n=8521</text>
<rect x="536.38" y="309.52" width="46.50" height="210.48" fill="#2563eb"/>
<rect x="585.88" y="311.69" width="46.50" height="208.31" fill="#dc2626"/>
<rect x="635.38" y="310.69" width="46.50" height="209.31" fill="#64748b"/>
<text x="610.62" y="548" text-anchor="middle" font-family="Arial" font-size="14">B2 n=1337</text>
<rect x="742.62" y="93.87" width="46.50" height="426.13" fill="#2563eb"/>
<rect x="792.12" y="93.87" width="46.50" height="426.13" fill="#dc2626"/>
<rect x="841.62" y="93.87" width="46.50" height="426.13" fill="#64748b"/>
<text x="816.88" y="548" text-anchor="middle" font-family="Arial" font-size="14">B3 n=1037</text>
<line x1="95" y1="70" x2="95" y2="520" stroke="#334155" stroke-width="1.5"/>
<line x1="95" y1="520" x2="920" y2="520" stroke="#334155" stroke-width="1.5"/>
<text transform="translate(24 295.0) rotate(-90)" text-anchor="middle" font-family="Arial" font-size="15">Precision</text>
<rect x="95" y="566" width="16" height="16" fill="#2563eb"/>
<text x="119" y="579" font-family="Arial" font-size="13">Frozen full model</text>
<rect x="335" y="566" width="16" height="16" fill="#dc2626"/>
<text x="359" y="579" font-family="Arial" font-size="13">Longest-duration rule</text>
<rect x="575" y="566" width="16" height="16" fill="#64748b"/>
<text x="599" y="579" font-family="Arial" font-size="13">Random baseline</text>
</svg>